<svg width="236" height="72" viewBox="0 0 236 72" fill="none" xmlns="http://www.w3.org/2000/svg">
<rect x="2.78247" y="2.7688" width="230.249" height="66.7483" rx="33.3742" stroke="white" stroke-width="4.46239"/>
<path d="M99.6982 48.9119H103.067L96.4277 31.6987H93.3785L86.7637 48.9119H90.108L91.5834 44.9037H98.2227L99.6982 48.9119ZM92.6162 42.1495L94.9276 35.8544L97.2391 42.1495H92.6162Z" fill="white"/>
<path d="M104.366 53.9283H107.366V47.5594C108.054 48.5184 109.382 49.1086 110.882 49.1086C114.521 49.1086 116.857 46.502 116.857 42.7151C116.857 38.9282 114.669 36.3216 111.103 36.3216C109.456 36.3216 108.103 37.0102 107.366 38.0676V36.5184H104.366V53.9283ZM110.538 46.502C108.497 46.502 107.169 45.002 107.169 42.7151C107.169 40.4282 108.497 38.9282 110.538 38.9282C112.529 38.9282 113.857 40.4282 113.857 42.7151C113.857 45.002 112.529 46.502 110.538 46.502Z" fill="white"/>
<path d="M118.693 53.9283H121.693V47.5594C122.382 48.5184 123.71 49.1086 125.21 49.1086C128.849 49.1086 131.185 46.502 131.185 42.7151C131.185 38.9282 128.997 36.3216 125.431 36.3216C123.783 36.3216 122.431 37.0102 121.693 38.0676V36.5184H118.693V53.9283ZM124.865 46.502C122.824 46.502 121.496 45.002 121.496 42.7151C121.496 40.4282 122.824 38.9282 124.865 38.9282C126.857 38.9282 128.185 40.4282 128.185 42.7151C128.185 45.002 126.857 46.502 124.865 46.502Z" fill="white"/>
<path d="M143.81 49.1086C147.597 49.1086 150.228 47.166 150.228 43.9692C150.228 37.2561 140.859 40.1086 140.859 36.2971C140.859 35.0921 141.916 34.3052 143.613 34.3052C145.433 34.3052 146.613 35.3134 146.761 36.8135H149.859C149.712 33.5921 147.253 31.502 143.613 31.502C140.121 31.502 137.687 33.4692 137.687 36.2971C137.687 42.8873 146.933 40.3299 146.933 44.0184C146.933 45.543 145.654 46.2807 143.81 46.2807C141.744 46.2807 140.466 45.0512 140.293 43.1332H137.17C137.343 46.7479 139.9 49.1086 143.81 49.1086Z" fill="white"/>
<path d="M153.351 32.7806V36.5184H150.917V39.0512H153.351V44.584C153.351 47.3381 155.122 48.9119 157.827 48.9119H159.818V46.3545H158.171C157.04 46.3545 156.376 45.7151 156.376 44.461V39.0512H159.818V36.5184H156.376V32.7806H153.351Z" fill="white"/>
<path d="M166.963 49.1086C170.725 49.1086 173.43 46.4037 173.43 42.7151C173.43 39.0266 170.725 36.3216 166.963 36.3216C163.176 36.3216 160.471 39.0266 160.471 42.7151C160.471 46.4037 163.176 49.1086 166.963 49.1086ZM166.963 46.502C164.898 46.502 163.521 44.9528 163.521 42.7151C163.521 40.4774 164.898 38.9282 166.963 38.9282C169.004 38.9282 170.381 40.4774 170.381 42.7151C170.381 44.9528 169.004 46.502 166.963 46.502Z" fill="white"/>
<path d="M182.75 39.0512V36.5184H181.299C179.701 36.5184 178.742 37.1331 178.127 38.7069V36.5184H175.103V48.9119H178.127V43.0594C178.127 40.6987 178.89 39.0512 180.808 39.0512H182.75Z" fill="white"/>
<path d="M192.2 44.7807C191.88 45.961 190.872 46.6004 189.323 46.6004C187.405 46.6004 186.126 45.3217 185.905 43.3299H195.052C195.077 43.084 195.102 42.7151 195.102 42.2971C195.102 39.3463 193.233 36.3216 189.077 36.3216C185.02 36.3216 183.003 39.3954 183.003 42.6659C183.003 45.9119 185.265 49.1086 189.323 49.1086C192.372 49.1086 194.684 47.4119 195.151 44.7807H192.2ZM189.077 38.584C190.872 38.584 191.954 39.7643 192.077 41.3381H185.979C186.298 39.4692 187.38 38.584 189.077 38.584Z" fill="white"/>
<path d="M73.1227 44.9846C72.2194 46.9751 71.7874 47.8631 70.6222 49.6227C68.9989 52.0783 66.7079 55.1389 63.8737 55.1649C61.3536 55.1876 60.7056 53.5354 57.2855 53.5549C53.8654 53.5744 53.1519 55.1941 50.6318 55.1714C47.7975 55.1454 45.6276 52.384 44.0043 49.9251C39.4616 43.0559 38.9903 34.993 41.7886 30.7095C43.7785 27.6652 46.9171 25.8828 49.8692 25.8828C52.8737 25.8828 54.7654 27.5221 57.2495 27.5221C59.6615 27.5221 61.131 25.8828 64.6035 25.8828C67.2316 25.8828 70.0135 27.3041 71.9968 29.763C65.5003 33.2985 66.5574 42.5192 73.1227 44.9846Z" fill="white"/>
<path d="M61.9678 22.8878C63.2311 21.2778 64.1901 19.0011 63.8399 16.6788C61.778 16.8187 59.3659 18.1229 57.9554 19.824C56.6757 21.3689 55.6218 23.6554 56.0309 25.8801C58.2859 25.9516 60.6162 24.6149 61.9678 22.8878Z" fill="white"/>
<path d="M86.7637 25.8405H89.1283C91.2731 25.8405 93.0108 24.4987 93.0108 21.991C93.0108 19.4834 91.2731 18.1415 89.1283 18.1415H86.7637V25.8405ZM87.9075 24.8286V19.1534H89.0624C90.4922 19.1534 91.834 19.9563 91.834 21.991C91.834 24.0257 90.4922 24.8286 89.0624 24.8286H87.9075Z" fill="white"/>
<path d="M96.6594 25.9285C98.3202 25.9285 99.508 24.7296 99.508 23.0689C99.508 21.4081 98.3202 20.2093 96.6594 20.2093C94.9986 20.2093 93.7998 21.4081 93.7998 23.0689C93.7998 24.7296 94.9986 25.9285 96.6594 25.9285ZM96.6594 24.9936C95.6035 24.9936 94.8886 24.2017 94.8886 23.0689C94.8886 21.936 95.6035 21.1441 96.6594 21.1441C97.7043 21.1441 98.4192 21.936 98.4192 23.0689C98.4192 24.2017 97.7043 24.9936 96.6594 24.9936Z" fill="white"/>
<path d="M101.601 25.8405H102.591L103.845 21.7051L105.11 25.8405H106.1L107.815 20.2972H106.737L105.605 24.4217L104.362 20.2972H103.35L102.096 24.4217L100.952 20.2972H99.8854L101.601 25.8405Z" fill="white"/>
<path d="M108.672 25.8405H109.739V22.8379C109.739 21.87 110.355 21.1661 111.224 21.1661C112.005 21.1661 112.522 21.76 112.522 22.6399V25.8405H113.589V22.431C113.589 21.1111 112.775 20.2093 111.521 20.2093C110.696 20.2093 110.036 20.5832 109.739 21.2761V20.2972H108.672V25.8405Z" fill="white"/>
<path d="M115.011 25.8405H116.078V17.9766H115.011V25.8405Z" fill="white"/>
<path d="M120.031 25.9285C121.692 25.9285 122.88 24.7296 122.88 23.0689C122.88 21.4081 121.692 20.2093 120.031 20.2093C118.37 20.2093 117.172 21.4081 117.172 23.0689C117.172 24.7296 118.37 25.9285 120.031 25.9285ZM120.031 24.9936C118.975 24.9936 118.26 24.2017 118.26 23.0689C118.26 21.936 118.975 21.1441 120.031 21.1441C121.076 21.1441 121.791 21.936 121.791 23.0689C121.791 24.2017 121.076 24.9936 120.031 24.9936Z" fill="white"/>
<path d="M126.059 20.2093C124.75 20.2093 123.76 21.0231 123.672 22.112H124.662C124.695 21.5511 125.256 21.0671 126.026 21.0671C126.884 21.0671 127.368 21.5291 127.368 22.2C127.368 22.398 127.247 22.5299 126.994 22.5299H125.839C124.53 22.5299 123.683 23.1899 123.683 24.2567C123.683 25.2466 124.431 25.9285 125.564 25.9285C126.4 25.9285 127.104 25.5325 127.368 24.9386V25.8405H128.435V22.266C128.435 21.0341 127.489 20.2093 126.059 20.2093ZM125.773 25.0816C125.157 25.0816 124.739 24.7406 124.739 24.2347C124.739 23.6518 125.212 23.2778 125.938 23.2778H127.368V23.4098C127.368 24.4327 126.785 25.0816 125.773 25.0816Z" fill="white"/>
<path d="M132.013 25.9285C132.75 25.9285 133.432 25.5655 133.762 25.0156V25.8405H134.829V17.9766H133.762V21.1111C133.432 20.5722 132.761 20.2093 132.002 20.2093C130.308 20.2093 129.352 21.4191 129.352 23.0689C129.352 24.7186 130.308 25.9285 132.013 25.9285ZM132.134 24.9936C131.111 24.9936 130.44 24.2237 130.44 23.0689C130.44 21.914 131.111 21.1441 132.134 21.1441C133.168 21.1441 133.839 21.914 133.839 23.0689C133.839 24.2237 133.168 24.9936 132.134 24.9936Z" fill="white"/>
<path d="M141.309 25.9285C142.969 25.9285 144.157 24.7296 144.157 23.0689C144.157 21.4081 142.969 20.2093 141.309 20.2093C139.648 20.2093 138.449 21.4081 138.449 23.0689C138.449 24.7296 139.648 25.9285 141.309 25.9285ZM141.309 24.9936C140.253 24.9936 139.538 24.2017 139.538 23.0689C139.538 21.936 140.253 21.1441 141.309 21.1441C142.353 21.1441 143.068 21.936 143.068 23.0689C143.068 24.2017 142.353 24.9936 141.309 24.9936Z" fill="white"/>
<path d="M145.202 25.8405H146.268V22.8379C146.268 21.87 146.884 21.1661 147.753 21.1661C148.534 21.1661 149.051 21.76 149.051 22.6399V25.8405H150.118V22.431C150.118 21.1111 149.304 20.2093 148.05 20.2093C147.225 20.2093 146.565 20.5832 146.268 21.2761V20.2972H145.202V25.8405Z" fill="white"/>
<path d="M154.658 18.5595V20.2972H153.525V21.2211H154.658V24.0257C154.658 25.1586 155.373 25.8405 156.494 25.8405H157.363V24.9166H156.582C156.043 24.9166 155.725 24.5867 155.725 23.9927V21.2211H157.363V20.2972H155.725V18.5595H154.658Z" fill="white"/>
<path d="M158.468 25.8405H159.535V22.8379C159.535 21.87 160.15 21.1661 161.019 21.1661C161.8 21.1661 162.317 21.76 162.317 22.6399V25.8405H163.384V22.431C163.384 21.1111 162.57 20.2093 161.316 20.2093C160.491 20.2093 159.831 20.5832 159.535 21.2761V17.9766H158.468V25.8405Z" fill="white"/>
<path d="M168.709 24.0367C168.555 24.6636 168.027 25.0156 167.213 25.0156C166.246 25.0156 165.564 24.3007 165.476 23.2558H169.71C169.721 23.1569 169.732 22.9809 169.732 22.8379C169.732 21.4301 168.819 20.2093 167.103 20.2093C165.399 20.2093 164.431 21.4851 164.431 23.0359C164.431 24.5757 165.498 25.9285 167.213 25.9285C168.577 25.9285 169.578 25.1806 169.776 24.0367H168.709ZM167.103 21.0671C168.016 21.0671 168.588 21.6281 168.654 22.4749H165.509C165.674 21.5511 166.235 21.0671 167.103 21.0671Z" fill="white"/>
</svg>
