<svg width="236" height="72" viewBox="0 0 236 72" fill="none" xmlns="http://www.w3.org/2000/svg">
<rect x="2.7688" y="2.7688" width="230.249" height="66.7483" rx="33.3742" stroke="white" stroke-width="4.46239"/>
<path d="M83.4821 48.8542C85.7936 48.8542 87.6871 47.6739 88.3264 45.928V48.6575H91.2281V42.2395C91.2281 40.5919 89.8756 39.4116 88.3756 39.4116H83.8018V41.8952H87.2936C87.8346 41.8952 88.1789 42.2395 88.1789 42.7804C88.1789 44.6247 85.9412 46.1739 83.6051 46.1739C80.5559 46.1739 78.1952 43.8624 78.1952 40.0509C78.1952 36.2394 80.5559 34.0509 83.6543 34.0509C86.0149 34.0509 87.7117 35.3542 88.0068 37.2968H91.2773C91.0068 33.7312 87.9084 31.2476 83.6789 31.2476C79.2034 31.2476 75.0723 34.1738 75.0723 40.0509C75.0723 45.928 79.1297 48.8542 83.4821 48.8542Z" fill="white"/>
<path d="M99.2251 48.8542C102.987 48.8542 105.692 46.1493 105.692 42.4608C105.692 38.7722 102.987 36.0673 99.2251 36.0673C95.4382 36.0673 92.7333 38.7722 92.7333 42.4608C92.7333 46.1493 95.4382 48.8542 99.2251 48.8542ZM99.2251 46.2477C97.1595 46.2477 95.7825 44.6985 95.7825 42.4608C95.7825 40.2231 97.1595 38.6739 99.2251 38.6739C101.266 38.6739 102.643 40.2231 102.643 42.4608C102.643 44.6985 101.266 46.2477 99.2251 46.2477Z" fill="white"/>
<path d="M113.193 48.8542C116.955 48.8542 119.66 46.1493 119.66 42.4608C119.66 38.7722 116.955 36.0673 113.193 36.0673C109.406 36.0673 106.701 38.7722 106.701 42.4608C106.701 46.1493 109.406 48.8542 113.193 48.8542ZM113.193 46.2477C111.127 46.2477 109.75 44.6985 109.75 42.4608C109.75 40.2231 111.127 38.6739 113.193 38.6739C115.234 38.6739 116.611 40.2231 116.611 42.4608C116.611 44.6985 115.234 46.2477 113.193 46.2477Z" fill="white"/>
<path d="M130.308 36.264V37.6657C129.595 36.7066 128.242 36.0673 126.693 36.0673C123.004 36.0673 120.84 38.6739 120.84 42.4608C120.84 46.2477 123.004 48.8542 126.742 48.8542C128.291 48.8542 129.717 48.2395 130.332 47.2805V49.051C130.332 50.3543 129.472 51.2641 128.267 51.2641H122.562V53.6739H128.685C131.463 53.6739 133.332 51.928 133.332 49.3461V36.264H130.308ZM127.16 46.2477C125.144 46.2477 123.84 44.7477 123.84 42.4608C123.84 40.1739 125.144 38.6739 127.16 38.6739C129.201 38.6739 130.529 40.1739 130.529 42.4608C130.529 44.7477 129.201 46.2477 127.16 46.2477Z" fill="white"/>
<path d="M136.024 48.6575H139.024V30.9525H136.024V48.6575Z" fill="white"/>
<path d="M150.067 44.5264C149.748 45.7067 148.74 46.346 147.19 46.346C145.272 46.346 143.994 45.0673 143.772 43.0755H152.92C152.945 42.8296 152.969 42.4608 152.969 42.0427C152.969 39.0919 151.1 36.0673 146.944 36.0673C142.887 36.0673 140.871 39.1411 140.871 42.4116C140.871 45.6575 143.133 48.8542 147.19 48.8542C150.24 48.8542 152.551 47.1575 153.018 44.5264H150.067ZM146.944 38.3296C148.74 38.3296 149.822 39.5099 149.944 41.0837H143.846C144.166 39.2149 145.248 38.3296 146.944 38.3296Z" fill="white"/>
<path d="M159.991 48.6575H163.261V42.1165H166.901C170.491 42.1165 172.63 39.9034 172.63 36.7804C172.63 33.6574 170.491 31.4443 166.901 31.4443H159.991V48.6575ZM163.261 39.387V34.1738H166.753C168.671 34.1738 169.458 35.4034 169.458 36.7804C169.458 38.1575 168.671 39.387 166.753 39.387H163.261Z" fill="white"/>
<path d="M174.244 48.6575H177.244V30.9525H174.244V48.6575Z" fill="white"/>
<path d="M184.699 36.0673C181.478 36.0673 179.388 37.9853 179.24 40.4444H181.945C181.994 39.3378 182.953 38.3296 184.552 38.3296C186.15 38.3296 187.084 39.1903 187.084 40.3952C187.084 40.887 186.789 41.2313 186.175 41.2313H183.888C181.109 41.2313 179.24 42.7313 179.24 45.1411C179.24 47.2805 180.912 48.8542 183.371 48.8542C185.142 48.8542 186.568 48.0428 187.084 46.8132V48.6575H190.06V40.6903C190.06 37.887 187.847 36.0673 184.699 36.0673ZM184.084 46.6165C182.953 46.6165 182.166 45.9772 182.166 45.0182C182.166 43.9362 183.027 43.2231 184.306 43.2231H187.084V43.4198C187.084 45.2887 185.978 46.6165 184.084 46.6165Z" fill="white"/>
<path d="M202.427 36.264H199.328L196.476 44.7723L193.599 36.264H190.525L195.049 48.6575L193.304 53.6739H196.181L198.099 48.0674L202.427 36.264Z" fill="white"/>
<path d="M33.8258 35.6143V17.4892L52.1115 35.6143L33.8258 53.7394V35.6143Z" fill="white" stroke="white" stroke-width="0.557799"/>
<path d="M49.8064 26.3855L49.8065 26.3855L57.1423 30.6219L52.5076 35.2164L34.9446 17.8076L49.8064 26.3855Z" fill="white" stroke="white" stroke-width="0.557799"/>
<path d="M49.8065 44.8338L34.9373 53.4189L52.5076 36.003L57.1423 40.6005L49.8065 44.8338L49.8065 44.8338Z" fill="white" stroke="white" stroke-width="0.557799"/>
<path d="M57.5981 30.5674L52.5078 35.6135L57.5981 40.6629L66.3451 35.6135L57.5981 30.5674Z" fill="white"/>
<path d="M81.2426 24.4646C82.3835 24.4646 83.3515 23.91 83.6972 23.0945V24.3776H84.7805V21.6808C84.7805 20.8653 84.0199 20.3977 83.3861 20.3977H81.3348V21.3111H83.0865C83.4207 21.3111 83.6281 21.5177 83.6281 21.8113C83.6281 22.8009 82.5103 23.4968 81.2772 23.4968C79.6984 23.4968 78.5344 22.4311 78.5344 20.5717C78.5344 18.7123 79.6984 17.6792 81.2887 17.6792C82.4757 17.6792 83.3976 18.3208 83.5589 19.2451H84.8035C84.6422 17.7445 83.1902 16.6788 81.2887 16.6788C79.2489 16.6788 77.3359 17.9728 77.3359 20.5717C77.3359 23.1706 79.2259 24.4646 81.2426 24.4646Z" fill="white"/>
<path d="M86.179 24.3776H91.48V23.3772H87.3775V20.9523H90.5927V19.9519H87.3775V17.7662H91.3533V16.7658H86.179V24.3776Z" fill="white"/>
<path d="M94.5949 24.3776H95.7934V17.7662H98.3172V16.7658H92.0711V17.7662H94.5949V24.3776Z" fill="white"/>
<path d="M101.912 24.3776H103.111V16.7658H101.912V24.3776Z" fill="white"/>
<path d="M106.58 24.3776H107.779V17.7662H110.303V16.7658H104.057V17.7662H106.58V24.3776Z" fill="white"/>
<path d="M117.539 24.4646C119.832 24.4646 121.538 22.8117 121.538 20.5717C121.538 18.3317 119.832 16.6788 117.539 16.6788C115.234 16.6788 113.529 18.3317 113.529 20.5717C113.529 22.8117 115.234 24.4646 117.539 24.4646ZM117.539 23.4642C115.937 23.4642 114.75 22.2354 114.75 20.5717C114.75 18.908 115.937 17.6792 117.539 17.6792C119.141 17.6792 120.316 18.908 120.316 20.5717C120.316 22.2354 119.141 23.4642 117.539 23.4642Z" fill="white"/>
<path d="M122.822 24.3776H124.02V18.5274L127.916 24.3776H129.241V16.7658H128.042V22.6269L124.159 16.7658H122.822V24.3776Z" fill="white"/>
</svg>
